<svg xmlns="http://www.w3.org/2000/svg" width="896" height="596" viewBox="0 0 896 596">
  <rect width="100%" height="100%" fill="#fcfbf7" />
  <rect x="28" y="28" width="840" height="540" fill="#fffdf6" stroke="#d1c5ae" />
  <g stroke="#e7dcc4" stroke-width="1">
    <line x1="28" y1="28" x2="28" y2="568" /><line x1="58" y1="28" x2="58" y2="568" /><line x1="88" y1="28" x2="88" y2="568" /><line x1="118" y1="28" x2="118" y2="568" /><line x1="148" y1="28" x2="148" y2="568" /><line x1="178" y1="28" x2="178" y2="568" /><line x1="208" y1="28" x2="208" y2="568" /><line x1="238" y1="28" x2="238" y2="568" /><line x1="268" y1="28" x2="268" y2="568" /><line x1="298" y1="28" x2="298" y2="568" /><line x1="328" y1="28" x2="328" y2="568" /><line x1="358" y1="28" x2="358" y2="568" /><line x1="388" y1="28" x2="388" y2="568" /><line x1="418" y1="28" x2="418" y2="568" /><line x1="448" y1="28" x2="448" y2="568" /><line x1="478" y1="28" x2="478" y2="568" /><line x1="508" y1="28" x2="508" y2="568" /><line x1="538" y1="28" x2="538" y2="568" /><line x1="568" y1="28" x2="568" y2="568" /><line x1="598" y1="28" x2="598" y2="568" /><line x1="628" y1="28" x2="628" y2="568" /><line x1="658" y1="28" x2="658" y2="568" /><line x1="688" y1="28" x2="688" y2="568" /><line x1="718" y1="28" x2="718" y2="568" /><line x1="748" y1="28" x2="748" y2="568" /><line x1="778" y1="28" x2="778" y2="568" /><line x1="808" y1="28" x2="808" y2="568" /><line x1="838" y1="28" x2="838" y2="568" /><line x1="868" y1="28" x2="868" y2="568" />
    <line x1="28" y1="28" x2="868" y2="28" /><line x1="28" y1="58" x2="868" y2="58" /><line x1="28" y1="88" x2="868" y2="88" /><line x1="28" y1="118" x2="868" y2="118" /><line x1="28" y1="148" x2="868" y2="148" /><line x1="28" y1="178" x2="868" y2="178" /><line x1="28" y1="208" x2="868" y2="208" /><line x1="28" y1="238" x2="868" y2="238" /><line x1="28" y1="268" x2="868" y2="268" /><line x1="28" y1="298" x2="868" y2="298" /><line x1="28" y1="328" x2="868" y2="328" /><line x1="28" y1="358" x2="868" y2="358" /><line x1="28" y1="388" x2="868" y2="388" /><line x1="28" y1="418" x2="868" y2="418" /><line x1="28" y1="448" x2="868" y2="448" /><line x1="28" y1="478" x2="868" y2="478" /><line x1="28" y1="508" x2="868" y2="508" /><line x1="28" y1="538" x2="868" y2="538" /><line x1="28" y1="568" x2="868" y2="568" />
  </g>
  <g><rect x="181" y="481" width="24" height="24" rx="4" fill="#1f2937" /><rect x="211" y="481" width="24" height="24" rx="4" fill="#1f2937" /><rect x="241" y="481" width="24" height="24" rx="4" fill="#1f2937" /><rect x="271" y="481" width="24" height="24" rx="4" fill="#1f2937" /><rect x="181" y="451" width="24" height="24" rx="4" fill="#1f2937" /><rect x="211" y="451" width="24" height="24" rx="4" fill="#1f2937" /><rect x="241" y="451" width="24" height="24" rx="4" fill="#1f2937" /><rect x="271" y="451" width="24" height="24" rx="4" fill="#1f2937" /><rect x="181" y="421" width="24" height="24" rx="4" fill="#1f2937" /><rect x="211" y="421" width="24" height="24" rx="4" fill="#1f2937" /><rect x="241" y="421" width="24" height="24" rx="4" fill="#1f2937" /><rect x="271" y="421" width="24" height="24" rx="4" fill="#1f2937" /><rect x="181" y="391" width="24" height="24" rx="4" fill="#1f2937" /><rect x="211" y="391" width="24" height="24" rx="4" fill="#1f2937" /><rect x="241" y="391" width="24" height="24" rx="4" fill="#1f2937" /><rect x="271" y="391" width="24" height="24" rx="4" fill="#1f2937" /><rect x="181" y="361" width="24" height="24" rx="4" fill="#1f2937" /><rect x="211" y="361" width="24" height="24" rx="4" fill="#1f2937" /><rect x="241" y="361" width="24" height="24" rx="4" fill="#1f2937" /><rect x="271" y="361" width="24" height="24" rx="4" fill="#1f2937" /><rect x="391" y="511" width="24" height="24" rx="4" fill="#1f2937" /><rect x="421" y="511" width="24" height="24" rx="4" fill="#1f2937" /><rect x="451" y="511" width="24" height="24" rx="4" fill="#1f2937" /><rect x="481" y="511" width="24" height="24" rx="4" fill="#1f2937" /><rect x="511" y="511" width="24" height="24" rx="4" fill="#1f2937" /><rect x="391" y="481" width="24" height="24" rx="4" fill="#1f2937" /><rect x="421" y="481" width="24" height="24" rx="4" fill="#1f2937" /><rect x="451" y="481" width="24" height="24" rx="4" fill="#1f2937" /><rect x="481" y="481" width="24" height="24" rx="4" fill="#1f2937" /><rect x="511" y="481" width="24" height="24" rx="4" fill="#1f2937" /><rect x="391" y="451" width="24" height="24" rx="4" fill="#1f2937" /><rect x="421" y="451" width="24" height="24" rx="4" fill="#1f2937" /><rect x="451" y="451" width="24" height="24" rx="4" fill="#1f2937" /><rect x="481" y="451" width="24" height="24" rx="4" fill="#1f2937" /><rect x="511" y="451" width="24" height="24" rx="4" fill="#1f2937" /><rect x="391" y="421" width="24" height="24" rx="4" fill="#1f2937" /><rect x="421" y="421" width="24" height="24" rx="4" fill="#1f2937" /><rect x="451" y="421" width="24" height="24" rx="4" fill="#1f2937" /><rect x="481" y="421" width="24" height="24" rx="4" fill="#1f2937" /><rect x="511" y="421" width="24" height="24" rx="4" fill="#1f2937" /><rect x="391" y="391" width="24" height="24" rx="4" fill="#1f2937" /><rect x="421" y="391" width="24" height="24" rx="4" fill="#1f2937" /><rect x="451" y="391" width="24" height="24" rx="4" fill="#1f2937" /><rect x="481" y="391" width="24" height="24" rx="4" fill="#1f2937" /><rect x="511" y="391" width="24" height="24" rx="4" fill="#1f2937" /><rect x="631" y="451" width="24" height="24" rx="4" fill="#1f2937" /><rect x="661" y="451" width="24" height="24" rx="4" fill="#1f2937" /><rect x="691" y="451" width="24" height="24" rx="4" fill="#1f2937" /><rect x="721" y="451" width="24" height="24" rx="4" fill="#1f2937" /><rect x="631" y="421" width="24" height="24" rx="4" fill="#1f2937" /><rect x="661" y="421" width="24" height="24" rx="4" fill="#1f2937" /><rect x="691" y="421" width="24" height="24" rx="4" fill="#1f2937" /><rect x="721" y="421" width="24" height="24" rx="4" fill="#1f2937" /><rect x="631" y="391" width="24" height="24" rx="4" fill="#1f2937" /><rect x="661" y="391" width="24" height="24" rx="4" fill="#1f2937" /><rect x="691" y="391" width="24" height="24" rx="4" fill="#1f2937" /><rect x="721" y="391" width="24" height="24" rx="4" fill="#1f2937" /><rect x="631" y="361" width="24" height="24" rx="4" fill="#1f2937" /><rect x="661" y="361" width="24" height="24" rx="4" fill="#1f2937" /><rect x="691" y="361" width="24" height="24" rx="4" fill="#1f2937" /><rect x="721" y="361" width="24" height="24" rx="4" fill="#1f2937" /><rect x="631" y="331" width="24" height="24" rx="4" fill="#1f2937" /><rect x="661" y="331" width="24" height="24" rx="4" fill="#1f2937" /><rect x="691" y="331" width="24" height="24" rx="4" fill="#1f2937" /><rect x="721" y="331" width="24" height="24" rx="4" fill="#1f2937" /><rect x="631" y="301" width="24" height="24" rx="4" fill="#1f2937" /><rect x="661" y="301" width="24" height="24" rx="4" fill="#1f2937" /><rect x="691" y="301" width="24" height="24" rx="4" fill="#1f2937" /><rect x="721" y="301" width="24" height="24" rx="4" fill="#1f2937" /><rect x="241" y="241" width="24" height="24" rx="4" fill="#1f2937" /><rect x="271" y="241" width="24" height="24" rx="4" fill="#1f2937" /><rect x="301" y="241" width="24" height="24" rx="4" fill="#1f2937" /><rect x="331" y="241" width="24" height="24" rx="4" fill="#1f2937" /><rect x="361" y="241" width="24" height="24" rx="4" fill="#1f2937" /><rect x="241" y="211" width="24" height="24" rx="4" fill="#1f2937" /><rect x="271" y="211" width="24" height="24" rx="4" fill="#1f2937" /><rect x="301" y="211" width="24" height="24" rx="4" fill="#1f2937" /><rect x="331" y="211" width="24" height="24" rx="4" fill="#1f2937" /><rect x="361" y="211" width="24" height="24" rx="4" fill="#1f2937" /><rect x="241" y="181" width="24" height="24" rx="4" fill="#1f2937" /><rect x="271" y="181" width="24" height="24" rx="4" fill="#1f2937" /><rect x="301" y="181" width="24" height="24" rx="4" fill="#1f2937" /><rect x="331" y="181" width="24" height="24" rx="4" fill="#1f2937" /><rect x="361" y="181" width="24" height="24" rx="4" fill="#1f2937" /><rect x="241" y="151" width="24" height="24" rx="4" fill="#1f2937" /><rect x="271" y="151" width="24" height="24" rx="4" fill="#1f2937" /><rect x="301" y="151" width="24" height="24" rx="4" fill="#1f2937" /><rect x="331" y="151" width="24" height="24" rx="4" fill="#1f2937" /><rect x="361" y="151" width="24" height="24" rx="4" fill="#1f2937" /><rect x="241" y="121" width="24" height="24" rx="4" fill="#1f2937" /><rect x="271" y="121" width="24" height="24" rx="4" fill="#1f2937" /><rect x="301" y="121" width="24" height="24" rx="4" fill="#1f2937" /><rect x="331" y="121" width="24" height="24" rx="4" fill="#1f2937" /><rect x="361" y="121" width="24" height="24" rx="4" fill="#1f2937" /><rect x="241" y="91" width="24" height="24" rx="4" fill="#1f2937" /><rect x="271" y="91" width="24" height="24" rx="4" fill="#1f2937" /><rect x="301" y="91" width="24" height="24" rx="4" fill="#1f2937" /><rect x="331" y="91" width="24" height="24" rx="4" fill="#1f2937" /><rect x="361" y="91" width="24" height="24" rx="4" fill="#1f2937" /><rect x="481" y="271" width="24" height="24" rx="4" fill="#1f2937" /><rect x="511" y="271" width="24" height="24" rx="4" fill="#1f2937" /><rect x="541" y="271" width="24" height="24" rx="4" fill="#1f2937" /><rect x="571" y="271" width="24" height="24" rx="4" fill="#1f2937" /><rect x="481" y="241" width="24" height="24" rx="4" fill="#1f2937" /><rect x="511" y="241" width="24" height="24" rx="4" fill="#1f2937" /><rect x="541" y="241" width="24" height="24" rx="4" fill="#1f2937" /><rect x="571" y="241" width="24" height="24" rx="4" fill="#1f2937" /><rect x="481" y="211" width="24" height="24" rx="4" fill="#1f2937" /><rect x="511" y="211" width="24" height="24" rx="4" fill="#1f2937" /><rect x="541" y="211" width="24" height="24" rx="4" fill="#1f2937" /><rect x="571" y="211" width="24" height="24" rx="4" fill="#1f2937" /><rect x="481" y="181" width="24" height="24" rx="4" fill="#1f2937" /><rect x="511" y="181" width="24" height="24" rx="4" fill="#1f2937" /><rect x="541" y="181" width="24" height="24" rx="4" fill="#1f2937" /><rect x="571" y="181" width="24" height="24" rx="4" fill="#1f2937" /><rect x="481" y="151" width="24" height="24" rx="4" fill="#1f2937" /><rect x="511" y="151" width="24" height="24" rx="4" fill="#1f2937" /><rect x="541" y="151" width="24" height="24" rx="4" fill="#1f2937" /><rect x="571" y="151" width="24" height="24" rx="4" fill="#1f2937" /><rect x="121" y="151" width="24" height="24" rx="4" fill="#1f2937" /><rect x="151" y="151" width="24" height="24" rx="4" fill="#1f2937" /><rect x="181" y="151" width="24" height="24" rx="4" fill="#1f2937" /><rect x="121" y="121" width="24" height="24" rx="4" fill="#1f2937" /><rect x="151" y="121" width="24" height="24" rx="4" fill="#1f2937" /><rect x="181" y="121" width="24" height="24" rx="4" fill="#1f2937" /><rect x="121" y="91" width="24" height="24" rx="4" fill="#1f2937" /><rect x="151" y="91" width="24" height="24" rx="4" fill="#1f2937" /><rect x="181" y="91" width="24" height="24" rx="4" fill="#1f2937" /><rect x="121" y="61" width="24" height="24" rx="4" fill="#1f2937" /><rect x="151" y="61" width="24" height="24" rx="4" fill="#1f2937" /><rect x="181" y="61" width="24" height="24" rx="4" fill="#1f2937" /></g>
  <g><circle cx="73" cy="523" r="3" fill="#bfdbfe" opacity="0.55" /><circle cx="133" cy="493" r="3" fill="#bcd8fc" opacity="0.55" /><circle cx="163" cy="463" r="3" fill="#b9d5fb" opacity="0.55" /><circle cx="163" cy="433" r="3" fill="#b6d2f9" opacity="0.55" /><circle cx="193" cy="523" r="3" fill="#b3d0f8" opacity="0.55" /><circle cx="133" cy="523" r="3" fill="#b1cdf7" opacity="0.55" /><circle cx="163" cy="403" r="3" fill="#aecaf5" opacity="0.55" /><circle cx="253" cy="523" r="3" fill="#abc8f4" opacity="0.55" /><circle cx="313" cy="493" r="3" fill="#a8c5f3" opacity="0.55" /><circle cx="373" cy="433" r="3" fill="#a6c2f1" opacity="0.55" /><circle cx="343" cy="463" r="3" fill="#a3c0f0" opacity="0.55" /><circle cx="373" cy="403" r="3" fill="#a0bdef" opacity="0.55" /><circle cx="373" cy="373" r="3" fill="#9dbaed" opacity="0.55" /><circle cx="343" cy="433" r="3" fill="#9ab8ec" opacity="0.55" /><circle cx="403" cy="343" r="3" fill="#98b5ea" opacity="0.55" /><circle cx="463" cy="283" r="3" fill="#95b2e9" opacity="0.55" /><circle cx="433" cy="313" r="3" fill="#92b0e8" opacity="0.55" /><circle cx="463" cy="253" r="3" fill="#8fade6" opacity="0.55" /><circle cx="433" cy="283" r="3" fill="#8daae5" opacity="0.55" /><circle cx="373" cy="343" r="3" fill="#8aa8e4" opacity="0.55" /><circle cx="463" cy="223" r="3" fill="#87a5e2" opacity="0.55" /><circle cx="343" cy="403" r="3" fill="#84a2e1" opacity="0.55" /><circle cx="463" cy="313" r="3" fill="#81a0e0" opacity="0.55" /><circle cx="313" cy="523" r="3" fill="#7f9dde" opacity="0.55" /><circle cx="373" cy="493" r="3" fill="#7c9add" opacity="0.55" /><circle cx="373" cy="373" r="3" fill="#7998db" opacity="0.55" /><circle cx="433" cy="313" r="3" fill="#7695da" opacity="0.55" /><circle cx="463" cy="253" r="3" fill="#7492d9" opacity="0.55" /><circle cx="463" cy="223" r="3" fill="#7190d7" opacity="0.55" /><circle cx="463" cy="193" r="3" fill="#6e8dd6" opacity="0.55" /><circle cx="403" cy="313" r="3" fill="#6b8ad5" opacity="0.55" /><circle cx="223" cy="523" r="3" fill="#6888d3" opacity="0.55" /><circle cx="103" cy="523" r="3" fill="#6685d2" opacity="0.55" /><circle cx="163" cy="493" r="3" fill="#6382d1" opacity="0.55" /><circle cx="343" cy="373" r="3" fill="#6080cf" opacity="0.55" /><circle cx="373" cy="463" r="3" fill="#5d7dce" opacity="0.55" /><circle cx="403" cy="313" r="3" fill="#5b7acc" opacity="0.55" /><circle cx="463" cy="253" r="3" fill="#5878cb" opacity="0.55" /><circle cx="433" cy="283" r="3" fill="#5575ca" opacity="0.55" /><circle cx="433" cy="253" r="3" fill="#5272c8" opacity="0.55" /><circle cx="163" cy="523" r="3" fill="#4f70c7" opacity="0.55" /><circle cx="373" cy="313" r="3" fill="#4d6dc6" opacity="0.55" /><circle cx="523" cy="313" r="3" fill="#4a6ac4" opacity="0.55" /><circle cx="373" cy="283" r="3" fill="#4768c3" opacity="0.55" /><circle cx="493" cy="313" r="3" fill="#4465c2" opacity="0.55" /><circle cx="283" cy="523" r="3" fill="#4262c0" opacity="0.55" /><circle cx="343" cy="493" r="3" fill="#3f60bf" opacity="0.55" /><circle cx="373" cy="463" r="3" fill="#3c5dbd" opacity="0.55" /><circle cx="373" cy="433" r="3" fill="#395abc" opacity="0.55" /><circle cx="403" cy="373" r="3" fill="#3658bb" opacity="0.55" /><circle cx="463" cy="313" r="3" fill="#3455b9" opacity="0.55" /><circle cx="433" cy="343" r="3" fill="#3152b8" opacity="0.55" /><circle cx="463" cy="283" r="3" fill="#2e50b7" opacity="0.55" /><circle cx="433" cy="313" r="3" fill="#2b4db5" opacity="0.55" /><circle cx="583" cy="313" r="3" fill="#294ab4" opacity="0.55" /><circle cx="643" cy="283" r="3" fill="#2648b3" opacity="0.55" /><circle cx="763" cy="163" r="3" fill="#2345b1" opacity="0.55" /><circle cx="793" cy="103" r="3" fill="#2042b0" opacity="0.55" /><circle cx="793" cy="73" r="3" fill="#1e40af" opacity="0.55" /></g>
  <polyline fill="none" stroke="#ea580c" stroke-width="6" stroke-linecap="round" stroke-linejoin="round" points="73,523 103,523 133,523 163,523 193,523 223,523 253,523 283,523 313,493 343,463 373,433 373,403 373,373 403,343 433,313 463,313 493,313 523,313 553,313 583,313 613,313 643,283 673,253 703,223 733,193 763,163 793,133 793,103 793,73" />
  <g><line x1="73" y1="523" x2="81" y2="523" stroke="#b45309" stroke-width="3" stroke-linecap="round" /><line x1="193" y1="523" x2="201" y2="523" stroke="#b45309" stroke-width="3" stroke-linecap="round" /><line x1="253" y1="523" x2="261" y2="523" stroke="#b45309" stroke-width="3" stroke-linecap="round" /><line x1="313" y1="493" x2="321" y2="485" stroke="#b45309" stroke-width="3" stroke-linecap="round" /><line x1="343" y1="463" x2="351" y2="455" stroke="#b45309" stroke-width="3" stroke-linecap="round" /><line x1="373" y1="403" x2="373" y2="395" stroke="#b45309" stroke-width="3" stroke-linecap="round" /><line x1="403" y1="343" x2="411" y2="335" stroke="#b45309" stroke-width="3" stroke-linecap="round" /><line x1="463" y1="313" x2="471" y2="313" stroke="#b45309" stroke-width="3" stroke-linecap="round" /><line x1="583" y1="313" x2="591" y2="313" stroke="#b45309" stroke-width="3" stroke-linecap="round" /><line x1="643" y1="283" x2="651" y2="275" stroke="#b45309" stroke-width="3" stroke-linecap="round" /><line x1="763" y1="163" x2="771" y2="155" stroke="#b45309" stroke-width="3" stroke-linecap="round" /><line x1="793" y1="103" x2="793" y2="95" stroke="#b45309" stroke-width="3" stroke-linecap="round" /><line x1="793" y1="73" x2="793" y2="65" stroke="#b45309" stroke-width="3" stroke-linecap="round" /></g>
  <circle cx="73" cy="523" r="7" fill="#0f766e" />
  <circle cx="793" cy="73" r="7" fill="#b91c1c" />
  <text x="28" y="18" fill="#4b5563" font-family="Arial, sans-serif" font-size="16">LattPath demo: downtown</text>
  <text x="28" y="588" fill="#4b5563" font-family="Arial, sans-serif" font-size="14">
    expanded=59 path_cost=26.7 runtime_ms=0.51
  </text>
</svg>
