<svg xmlns="http://www.w3.org/2000/svg" width="896" height="596" viewBox="0 0 896 596">
  <rect width="100%" height="100%" fill="#fcfbf7" />
  <rect x="28" y="28" width="840" height="540" fill="#fffdf6" stroke="#d1c5ae" />
  <g stroke="#e7dcc4" stroke-width="1">
    <line x1="28" y1="28" x2="28" y2="568" /><line x1="58" y1="28" x2="58" y2="568" /><line x1="88" y1="28" x2="88" y2="568" /><line x1="118" y1="28" x2="118" y2="568" /><line x1="148" y1="28" x2="148" y2="568" /><line x1="178" y1="28" x2="178" y2="568" /><line x1="208" y1="28" x2="208" y2="568" /><line x1="238" y1="28" x2="238" y2="568" /><line x1="268" y1="28" x2="268" y2="568" /><line x1="298" y1="28" x2="298" y2="568" /><line x1="328" y1="28" x2="328" y2="568" /><line x1="358" y1="28" x2="358" y2="568" /><line x1="388" y1="28" x2="388" y2="568" /><line x1="418" y1="28" x2="418" y2="568" /><line x1="448" y1="28" x2="448" y2="568" /><line x1="478" y1="28" x2="478" y2="568" /><line x1="508" y1="28" x2="508" y2="568" /><line x1="538" y1="28" x2="538" y2="568" /><line x1="568" y1="28" x2="568" y2="568" /><line x1="598" y1="28" x2="598" y2="568" /><line x1="628" y1="28" x2="628" y2="568" /><line x1="658" y1="28" x2="658" y2="568" /><line x1="688" y1="28" x2="688" y2="568" /><line x1="718" y1="28" x2="718" y2="568" /><line x1="748" y1="28" x2="748" y2="568" /><line x1="778" y1="28" x2="778" y2="568" /><line x1="808" y1="28" x2="808" y2="568" /><line x1="838" y1="28" x2="838" y2="568" /><line x1="868" y1="28" x2="868" y2="568" />
    <line x1="28" y1="28" x2="868" y2="28" /><line x1="28" y1="58" x2="868" y2="58" /><line x1="28" y1="88" x2="868" y2="88" /><line x1="28" y1="118" x2="868" y2="118" /><line x1="28" y1="148" x2="868" y2="148" /><line x1="28" y1="178" x2="868" y2="178" /><line x1="28" y1="208" x2="868" y2="208" /><line x1="28" y1="238" x2="868" y2="238" /><line x1="28" y1="268" x2="868" y2="268" /><line x1="28" y1="298" x2="868" y2="298" /><line x1="28" y1="328" x2="868" y2="328" /><line x1="28" y1="358" x2="868" y2="358" /><line x1="28" y1="388" x2="868" y2="388" /><line x1="28" y1="418" x2="868" y2="418" /><line x1="28" y1="448" x2="868" y2="448" /><line x1="28" y1="478" x2="868" y2="478" /><line x1="28" y1="508" x2="868" y2="508" /><line x1="28" y1="538" x2="868" y2="538" /><line x1="28" y1="568" x2="868" y2="568" />
  </g>
  <g><rect x="181" y="481" width="24" height="24" rx="4" fill="#1f2937" /><rect x="211" y="481" width="24" height="24" rx="4" fill="#1f2937" /><rect x="241" y="481" width="24" height="24" rx="4" fill="#1f2937" /><rect x="271" y="481" width="24" height="24" rx="4" fill="#1f2937" /><rect x="181" y="451" width="24" height="24" rx="4" fill="#1f2937" /><rect x="211" y="451" width="24" height="24" rx="4" fill="#1f2937" /><rect x="241" y="451" width="24" height="24" rx="4" fill="#1f2937" /><rect x="271" y="451" width="24" height="24" rx="4" fill="#1f2937" /><rect x="181" y="421" width="24" height="24" rx="4" fill="#1f2937" /><rect x="211" y="421" width="24" height="24" rx="4" fill="#1f2937" /><rect x="241" y="421" width="24" height="24" rx="4" fill="#1f2937" /><rect x="271" y="421" width="24" height="24" rx="4" fill="#1f2937" /><rect x="181" y="391" width="24" height="24" rx="4" fill="#1f2937" /><rect x="211" y="391" width="24" height="24" rx="4" fill="#1f2937" /><rect x="241" y="391" width="24" height="24" rx="4" fill="#1f2937" /><rect x="271" y="391" width="24" height="24" rx="4" fill="#1f2937" /><rect x="181" y="361" width="24" height="24" rx="4" fill="#1f2937" /><rect x="211" y="361" width="24" height="24" rx="4" fill="#1f2937" /><rect x="241" y="361" width="24" height="24" rx="4" fill="#1f2937" /><rect x="271" y="361" width="24" height="24" rx="4" fill="#1f2937" /><rect x="391" y="511" width="24" height="24" rx="4" fill="#1f2937" /><rect x="421" y="511" width="24" height="24" rx="4" fill="#1f2937" /><rect x="451" y="511" width="24" height="24" rx="4" fill="#1f2937" /><rect x="481" y="511" width="24" height="24" rx="4" fill="#1f2937" /><rect x="511" y="511" width="24" height="24" rx="4" fill="#1f2937" /><rect x="391" y="481" width="24" height="24" rx="4" fill="#1f2937" /><rect x="421" y="481" width="24" height="24" rx="4" fill="#1f2937" /><rect x="451" y="481" width="24" height="24" rx="4" fill="#1f2937" /><rect x="481" y="481" width="24" height="24" rx="4" fill="#1f2937" /><rect x="511" y="481" width="24" height="24" rx="4" fill="#1f2937" /><rect x="391" y="451" width="24" height="24" rx="4" fill="#1f2937" /><rect x="421" y="451" width="24" height="24" rx="4" fill="#1f2937" /><rect x="451" y="451" width="24" height="24" rx="4" fill="#1f2937" /><rect x="481" y="451" width="24" height="24" rx="4" fill="#1f2937" /><rect x="511" y="451" width="24" height="24" rx="4" fill="#1f2937" /><rect x="391" y="421" width="24" height="24" rx="4" fill="#1f2937" /><rect x="421" y="421" width="24" height="24" rx="4" fill="#1f2937" /><rect x="451" y="421" width="24" height="24" rx="4" fill="#1f2937" /><rect x="481" y="421" width="24" height="24" rx="4" fill="#1f2937" /><rect x="511" y="421" width="24" height="24" rx="4" fill="#1f2937" /><rect x="391" y="391" width="24" height="24" rx="4" fill="#1f2937" /><rect x="421" y="391" width="24" height="24" rx="4" fill="#1f2937" /><rect x="451" y="391" width="24" height="24" rx="4" fill="#1f2937" /><rect x="481" y="391" width="24" height="24" rx="4" fill="#1f2937" /><rect x="511" y="391" width="24" height="24" rx="4" fill="#1f2937" /><rect x="631" y="451" width="24" height="24" rx="4" fill="#1f2937" /><rect x="661" y="451" width="24" height="24" rx="4" fill="#1f2937" /><rect x="691" y="451" width="24" height="24" rx="4" fill="#1f2937" /><rect x="721" y="451" width="24" height="24" rx="4" fill="#1f2937" /><rect x="631" y="421" width="24" height="24" rx="4" fill="#1f2937" /><rect x="661" y="421" width="24" height="24" rx="4" fill="#1f2937" /><rect x="691" y="421" width="24" height="24" rx="4" fill="#1f2937" /><rect x="721" y="421" width="24" height="24" rx="4" fill="#1f2937" /><rect x="631" y="391" width="24" height="24" rx="4" fill="#1f2937" /><rect x="661" y="391" width="24" height="24" rx="4" fill="#1f2937" /><rect x="691" y="391" width="24" height="24" rx="4" fill="#1f2937" /><rect x="721" y="391" width="24" height="24" rx="4" fill="#1f2937" /><rect x="631" y="361" width="24" height="24" rx="4" fill="#1f2937" /><rect x="661" y="361" width="24" height="24" rx="4" fill="#1f2937" /><rect x="691" y="361" width="24" height="24" rx="4" fill="#1f2937" /><rect x="721" y="361" width="24" height="24" rx="4" fill="#1f2937" /><rect x="631" y="331" width="24" height="24" rx="4" fill="#1f2937" /><rect x="661" y="331" width="24" height="24" rx="4" fill="#1f2937" /><rect x="691" y="331" width="24" height="24" rx="4" fill="#1f2937" /><rect x="721" y="331" width="24" height="24" rx="4" fill="#1f2937" /><rect x="631" y="301" width="24" height="24" rx="4" fill="#1f2937" /><rect x="661" y="301" width="24" height="24" rx="4" fill="#1f2937" /><rect x="691" y="301" width="24" height="24" rx="4" fill="#1f2937" /><rect x="721" y="301" width="24" height="24" rx="4" fill="#1f2937" /><rect x="241" y="241" width="24" height="24" rx="4" fill="#1f2937" /><rect x="271" y="241" width="24" height="24" rx="4" fill="#1f2937" /><rect x="301" y="241" width="24" height="24" rx="4" fill="#1f2937" /><rect x="331" y="241" width="24" height="24" rx="4" fill="#1f2937" /><rect x="361" y="241" width="24" height="24" rx="4" fill="#1f2937" /><rect x="241" y="211" width="24" height="24" rx="4" fill="#1f2937" /><rect x="271" y="211" width="24" height="24" rx="4" fill="#1f2937" /><rect x="301" y="211" width="24" height="24" rx="4" fill="#1f2937" /><rect x="331" y="211" width="24" height="24" rx="4" fill="#1f2937" /><rect x="361" y="211" width="24" height="24" rx="4" fill="#1f2937" /><rect x="241" y="181" width="24" height="24" rx="4" fill="#1f2937" /><rect x="271" y="181" width="24" height="24" rx="4" fill="#1f2937" /><rect x="301" y="181" width="24" height="24" rx="4" fill="#1f2937" /><rect x="331" y="181" width="24" height="24" rx="4" fill="#1f2937" /><rect x="361" y="181" width="24" height="24" rx="4" fill="#1f2937" /><rect x="241" y="151" width="24" height="24" rx="4" fill="#1f2937" /><rect x="271" y="151" width="24" height="24" rx="4" fill="#1f2937" /><rect x="301" y="151" width="24" height="24" rx="4" fill="#1f2937" /><rect x="331" y="151" width="24" height="24" rx="4" fill="#1f2937" /><rect x="361" y="151" width="24" height="24" rx="4" fill="#1f2937" /><rect x="241" y="121" width="24" height="24" rx="4" fill="#1f2937" /><rect x="271" y="121" width="24" height="24" rx="4" fill="#1f2937" /><rect x="301" y="121" width="24" height="24" rx="4" fill="#1f2937" /><rect x="331" y="121" width="24" height="24" rx="4" fill="#1f2937" /><rect x="361" y="121" width="24" height="24" rx="4" fill="#1f2937" /><rect x="241" y="91" width="24" height="24" rx="4" fill="#1f2937" /><rect x="271" y="91" width="24" height="24" rx="4" fill="#1f2937" /><rect x="301" y="91" width="24" height="24" rx="4" fill="#1f2937" /><rect x="331" y="91" width="24" height="24" rx="4" fill="#1f2937" /><rect x="361" y="91" width="24" height="24" rx="4" fill="#1f2937" /><rect x="481" y="271" width="24" height="24" rx="4" fill="#1f2937" /><rect x="511" y="271" width="24" height="24" rx="4" fill="#1f2937" /><rect x="541" y="271" width="24" height="24" rx="4" fill="#1f2937" /><rect x="571" y="271" width="24" height="24" rx="4" fill="#1f2937" /><rect x="481" y="241" width="24" height="24" rx="4" fill="#1f2937" /><rect x="511" y="241" width="24" height="24" rx="4" fill="#1f2937" /><rect x="541" y="241" width="24" height="24" rx="4" fill="#1f2937" /><rect x="571" y="241" width="24" height="24" rx="4" fill="#1f2937" /><rect x="481" y="211" width="24" height="24" rx="4" fill="#1f2937" /><rect x="511" y="211" width="24" height="24" rx="4" fill="#1f2937" /><rect x="541" y="211" width="24" height="24" rx="4" fill="#1f2937" /><rect x="571" y="211" width="24" height="24" rx="4" fill="#1f2937" /><rect x="481" y="181" width="24" height="24" rx="4" fill="#1f2937" /><rect x="511" y="181" width="24" height="24" rx="4" fill="#1f2937" /><rect x="541" y="181" width="24" height="24" rx="4" fill="#1f2937" /><rect x="571" y="181" width="24" height="24" rx="4" fill="#1f2937" /><rect x="481" y="151" width="24" height="24" rx="4" fill="#1f2937" /><rect x="511" y="151" width="24" height="24" rx="4" fill="#1f2937" /><rect x="541" y="151" width="24" height="24" rx="4" fill="#1f2937" /><rect x="571" y="151" width="24" height="24" rx="4" fill="#1f2937" /><rect x="121" y="151" width="24" height="24" rx="4" fill="#1f2937" /><rect x="151" y="151" width="24" height="24" rx="4" fill="#1f2937" /><rect x="181" y="151" width="24" height="24" rx="4" fill="#1f2937" /><rect x="121" y="121" width="24" height="24" rx="4" fill="#1f2937" /><rect x="151" y="121" width="24" height="24" rx="4" fill="#1f2937" /><rect x="181" y="121" width="24" height="24" rx="4" fill="#1f2937" /><rect x="121" y="91" width="24" height="24" rx="4" fill="#1f2937" /><rect x="151" y="91" width="24" height="24" rx="4" fill="#1f2937" /><rect x="181" y="91" width="24" height="24" rx="4" fill="#1f2937" /><rect x="121" y="61" width="24" height="24" rx="4" fill="#1f2937" /><rect x="151" y="61" width="24" height="24" rx="4" fill="#1f2937" /><rect x="181" y="61" width="24" height="24" rx="4" fill="#1f2937" /></g>
  <g><circle cx="73" cy="523" r="3" fill="#bfdbfe" opacity="0.55" /><circle cx="133" cy="493" r="3" fill="#bdd9fd" opacity="0.55" /><circle cx="163" cy="463" r="3" fill="#bbd7fc" opacity="0.55" /><circle cx="163" cy="433" r="3" fill="#b9d5fb" opacity="0.55" /><circle cx="133" cy="523" r="3" fill="#b7d4fa" opacity="0.55" /><circle cx="103" cy="523" r="3" fill="#b6d2f9" opacity="0.55" /><circle cx="163" cy="493" r="3" fill="#b4d0f8" opacity="0.55" /><circle cx="193" cy="523" r="3" fill="#b2cef7" opacity="0.55" /><circle cx="163" cy="403" r="3" fill="#b0cdf6" opacity="0.55" /><circle cx="163" cy="523" r="3" fill="#aecbf6" opacity="0.55" /><circle cx="223" cy="523" r="3" fill="#adc9f5" opacity="0.55" /><circle cx="253" cy="523" r="3" fill="#abc8f4" opacity="0.55" /><circle cx="313" cy="493" r="3" fill="#a9c6f3" opacity="0.55" /><circle cx="373" cy="433" r="3" fill="#a7c4f2" opacity="0.55" /><circle cx="343" cy="463" r="3" fill="#a5c2f1" opacity="0.55" /><circle cx="373" cy="403" r="3" fill="#a4c1f0" opacity="0.55" /><circle cx="373" cy="373" r="3" fill="#a2bfef" opacity="0.55" /><circle cx="343" cy="433" r="3" fill="#a0bdef" opacity="0.55" /><circle cx="373" cy="343" r="3" fill="#9ebcee" opacity="0.55" /><circle cx="403" cy="343" r="3" fill="#9dbaed" opacity="0.55" /><circle cx="463" cy="283" r="3" fill="#9bb8ec" opacity="0.55" /><circle cx="433" cy="313" r="3" fill="#99b6eb" opacity="0.55" /><circle cx="463" cy="253" r="3" fill="#97b5ea" opacity="0.55" /><circle cx="433" cy="283" r="3" fill="#95b3e9" opacity="0.55" /><circle cx="343" cy="403" r="3" fill="#94b1e8" opacity="0.55" /><circle cx="163" cy="373" r="3" fill="#92afe8" opacity="0.55" /><circle cx="463" cy="223" r="3" fill="#90aee7" opacity="0.55" /><circle cx="283" cy="523" r="3" fill="#8eace6" opacity="0.55" /><circle cx="343" cy="493" r="3" fill="#8caae5" opacity="0.55" /><circle cx="373" cy="463" r="3" fill="#8ba9e4" opacity="0.55" /><circle cx="373" cy="433" r="3" fill="#89a7e3" opacity="0.55" /><circle cx="373" cy="463" r="3" fill="#87a5e2" opacity="0.55" /><circle cx="343" cy="373" r="3" fill="#85a3e1" opacity="0.55" /><circle cx="313" cy="523" r="3" fill="#83a2e1" opacity="0.55" /><circle cx="373" cy="493" r="3" fill="#82a0e0" opacity="0.55" /><circle cx="373" cy="373" r="3" fill="#809edf" opacity="0.55" /><circle cx="433" cy="313" r="3" fill="#7e9dde" opacity="0.55" /><circle cx="463" cy="253" r="3" fill="#7c9bdd" opacity="0.55" /><circle cx="463" cy="223" r="3" fill="#7b99dc" opacity="0.55" /><circle cx="403" cy="313" r="3" fill="#7997db" opacity="0.55" /><circle cx="463" cy="313" r="3" fill="#7796da" opacity="0.55" /><circle cx="463" cy="193" r="3" fill="#7594da" opacity="0.55" /><circle cx="403" cy="313" r="3" fill="#7392d9" opacity="0.55" /><circle cx="463" cy="253" r="3" fill="#7290d8" opacity="0.55" /><circle cx="433" cy="283" r="3" fill="#708fd7" opacity="0.55" /><circle cx="373" cy="313" r="3" fill="#6e8dd6" opacity="0.55" /><circle cx="433" cy="253" r="3" fill="#6c8bd5" opacity="0.55" /><circle cx="403" cy="373" r="3" fill="#6a8ad4" opacity="0.55" /><circle cx="463" cy="313" r="3" fill="#6988d3" opacity="0.55" /><circle cx="433" cy="343" r="3" fill="#6786d2" opacity="0.55" /><circle cx="463" cy="283" r="3" fill="#6584d2" opacity="0.55" /><circle cx="433" cy="313" r="3" fill="#6383d1" opacity="0.55" /><circle cx="493" cy="313" r="3" fill="#6181d0" opacity="0.55" /><circle cx="343" cy="523" r="3" fill="#607fcf" opacity="0.55" /><circle cx="523" cy="313" r="3" fill="#5e7ece" opacity="0.55" /><circle cx="193" cy="343" r="3" fill="#5c7ccd" opacity="0.55" /><circle cx="253" cy="283" r="3" fill="#5a7acc" opacity="0.55" /><circle cx="223" cy="313" r="3" fill="#5978cb" opacity="0.55" /><circle cx="403" cy="283" r="3" fill="#5777cb" opacity="0.55" /><circle cx="463" cy="223" r="3" fill="#5575ca" opacity="0.55" /><circle cx="433" cy="253" r="3" fill="#5373c9" opacity="0.55" /><circle cx="373" cy="523" r="3" fill="#5171c8" opacity="0.55" /><circle cx="163" cy="343" r="3" fill="#5070c7" opacity="0.55" /><circle cx="373" cy="283" r="3" fill="#4e6ec6" opacity="0.55" /><circle cx="283" cy="283" r="3" fill="#4c6cc5" opacity="0.55" /><circle cx="343" cy="283" r="3" fill="#4a6bc4" opacity="0.55" /><circle cx="403" cy="253" r="3" fill="#4869c4" opacity="0.55" /><circle cx="463" cy="193" r="3" fill="#4767c3" opacity="0.55" /><circle cx="433" cy="223" r="3" fill="#4565c2" opacity="0.55" /><circle cx="463" cy="163" r="3" fill="#4364c1" opacity="0.55" /><circle cx="433" cy="193" r="3" fill="#4162c0" opacity="0.55" /><circle cx="403" cy="283" r="3" fill="#3f60bf" opacity="0.55" /><circle cx="343" cy="343" r="3" fill="#3e5fbe" opacity="0.55" /><circle cx="373" cy="343" r="3" fill="#3c5dbd" opacity="0.55" /><circle cx="433" cy="283" r="3" fill="#3a5bbd" opacity="0.55" /><circle cx="433" cy="343" r="3" fill="#3859bc" opacity="0.55" /><circle cx="493" cy="313" r="3" fill="#3758bb" opacity="0.55" /><circle cx="463" cy="283" r="3" fill="#3556ba" opacity="0.55" /><circle cx="373" cy="283" r="3" fill="#3354b9" opacity="0.55" /><circle cx="313" cy="283" r="3" fill="#3152b8" opacity="0.55" /><circle cx="403" cy="283" r="3" fill="#2f51b7" opacity="0.55" /><circle cx="463" cy="223" r="3" fill="#2e4fb6" opacity="0.55" /><circle cx="433" cy="283" r="3" fill="#2c4db6" opacity="0.55" /><circle cx="433" cy="223" r="3" fill="#2a4cb5" opacity="0.55" /><circle cx="553" cy="313" r="3" fill="#284ab4" opacity="0.55" /><circle cx="613" cy="283" r="3" fill="#2648b3" opacity="0.55" /><circle cx="673" cy="223" r="3" fill="#2546b2" opacity="0.55" /><circle cx="733" cy="163" r="3" fill="#2345b1" opacity="0.55" /><circle cx="793" cy="103" r="3" fill="#2143b0" opacity="0.55" /><circle cx="763" cy="133" r="3" fill="#1f41af" opacity="0.55" /><circle cx="793" cy="73" r="3" fill="#1e40af" opacity="0.55" /></g>
  <polyline fill="none" stroke="#ea580c" stroke-width="6" stroke-linecap="round" stroke-linejoin="round" points="73,523 103,523 133,523 163,523 193,523 223,523 253,523 283,523 313,493 343,463 373,433 373,403 373,373 403,343 433,313 463,313 493,313 523,313 553,313 583,313 613,283 643,253 673,223 703,193 733,163 763,133 793,103 793,73" />
  <g><line x1="73" y1="523" x2="81" y2="523" stroke="#b45309" stroke-width="3" stroke-linecap="round" /><line x1="133" y1="523" x2="141" y2="523" stroke="#b45309" stroke-width="3" stroke-linecap="round" /><line x1="193" y1="523" x2="201" y2="523" stroke="#b45309" stroke-width="3" stroke-linecap="round" /><line x1="253" y1="523" x2="261" y2="523" stroke="#b45309" stroke-width="3" stroke-linecap="round" /><line x1="313" y1="493" x2="321" y2="485" stroke="#b45309" stroke-width="3" stroke-linecap="round" /><line x1="343" y1="463" x2="351" y2="455" stroke="#b45309" stroke-width="3" stroke-linecap="round" /><line x1="373" y1="403" x2="373" y2="395" stroke="#b45309" stroke-width="3" stroke-linecap="round" /><line x1="403" y1="343" x2="411" y2="335" stroke="#b45309" stroke-width="3" stroke-linecap="round" /><line x1="463" y1="313" x2="471" y2="313" stroke="#b45309" stroke-width="3" stroke-linecap="round" /><line x1="493" y1="313" x2="501" y2="313" stroke="#b45309" stroke-width="3" stroke-linecap="round" /><line x1="553" y1="313" x2="561" y2="313" stroke="#b45309" stroke-width="3" stroke-linecap="round" /><line x1="613" y1="283" x2="621" y2="275" stroke="#b45309" stroke-width="3" stroke-linecap="round" /><line x1="673" y1="223" x2="681" y2="215" stroke="#b45309" stroke-width="3" stroke-linecap="round" /><line x1="733" y1="163" x2="741" y2="155" stroke="#b45309" stroke-width="3" stroke-linecap="round" /><line x1="763" y1="133" x2="771" y2="125" stroke="#b45309" stroke-width="3" stroke-linecap="round" /><line x1="793" y1="73" x2="793" y2="65" stroke="#b45309" stroke-width="3" stroke-linecap="round" /></g>
  <circle cx="73" cy="523" r="7" fill="#0f766e" />
  <circle cx="793" cy="73" r="7" fill="#b91c1c" />
  <text x="28" y="18" fill="#4b5563" font-family="Arial, sans-serif" font-size="16">LattPath demo: downtown</text>
  <text x="28" y="588" fill="#4b5563" font-family="Arial, sans-serif" font-size="14">
    expanded=91 path_cost=27.6 runtime_ms=0.69
  </text>
</svg>
